<?xml version="1.0" encoding="UTF-8" standalone="no"?>
<!-- Generator: Adobe Illustrator 19.0.1, SVG Export Plug-In . SVG Version: 6.00 Build 0)  -->

<svg
   xmlns:dc="http://purl.org/dc/elements/1.1/"
   xmlns:cc="http://creativecommons.org/ns#"
   xmlns:rdf="http://www.w3.org/1999/02/22-rdf-syntax-ns#"
   xmlns:svg="http://www.w3.org/2000/svg"
   xmlns="http://www.w3.org/2000/svg"
   xmlns:sodipodi="http://sodipodi.sourceforge.net/DTD/sodipodi-0.dtd"
   xmlns:inkscape="http://www.inkscape.org/namespaces/inkscape"
   version="1.1"
   id="Layer_1"
   x="0px"
   y="0px"
   viewBox="-241.9 332.3 103 67.798828"
   xml:space="preserve"
   inkscape:version="0.91 r13725"
   sodipodi:docname="gp.svg"
   width="103"
   height="67.798828"><metadata
     id="metadata11"><rdf:RDF><cc:Work
         rdf:about=""><dc:format>image/svg+xml</dc:format><dc:type
           rdf:resource="http://purl.org/dc/dcmitype/StillImage" /><dc:title></dc:title></cc:Work></rdf:RDF></metadata><defs
     id="defs9" /><sodipodi:namedview
     pagecolor="#ffffff"
     bordercolor="#666666"
     borderopacity="1"
     objecttolerance="10"
     gridtolerance="10"
     guidetolerance="10"
     inkscape:pageopacity="0"
     inkscape:pageshadow="2"
     inkscape:window-width="1202"
     inkscape:window-height="802"
     id="namedview7"
     showgrid="false"
     fit-margin-top="0"
     fit-margin-left="0"
     fit-margin-right="0"
     fit-margin-bottom="0"
     inkscape:zoom="5.1545081"
     inkscape:cx="39.818992"
     inkscape:cy="22.054137"
     inkscape:window-x="1997"
     inkscape:window-y="120"
     inkscape:window-maximized="0"
     inkscape:current-layer="Layer_1" /><style
     type="text/css"
     id="style3">
	.st0{fill:#424242;}
</style><path
     d="m -207.39999,332.29999 c -19,0 -34.5,15.19844 -34.5,33.89844 0,18.7 15.5,33.90039 34.5,33.90039 19.5,0 32.49844,-13.19883 32.39844,-32.79883 l 0,-6.60156 -32.29883,0 0,13.10156 18.19922,0 c -2.1,8.5 -8.50039,13.19922 -18.40039,13.19922 -11.6,0 -21.09961,-9.40078 -21.09961,-20.80078 0,-11.5 9.39961,-20.79883 21.09961,-20.79883 5.1,0 10.10039,1.79961 13.90039,5.09961 l 8.80078,-9.90039 c -6.2,-5.3 -14.29961,-8.29883 -22.59961,-8.29883 z m 50.5,18.29883 0,10 -10,0 0,8 10,0 0,10 8,0 0,-10 10,0 0,-8 -10,0 0,-10 -8,0 z"
     id="path5"
     inkscape:connector-curvature="0"
     style="fill:#ffffff" /></svg>