<?xml version="1.0" encoding="UTF-8" standalone="no"?>
<svg
   xmlns:dc="http://purl.org/dc/elements/1.1/"
   xmlns:cc="http://creativecommons.org/ns#"
   xmlns:rdf="http://www.w3.org/1999/02/22-rdf-syntax-ns#"
   xmlns:svg="http://www.w3.org/2000/svg"
   xmlns="http://www.w3.org/2000/svg"
   version="1.1"
   id="svg3357"
   viewBox="0 0 164.77388 157.50149"
   height="44.45042mm"
   width="46.50285mm">
  <defs
     id="defs3359" />
  <metadata
     id="metadata3362">
    <rdf:RDF>
      <cc:Work
         rdf:about="">
        <dc:format>image/svg+xml</dc:format>
        <dc:type
           rdf:resource="http://purl.org/dc/dcmitype/StillImage" />
        <dc:title></dc:title>
      </cc:Work>
    </rdf:RDF>
  </metadata>
  <g
     transform="translate(-1.3070531,-0.65279034)"
     id="layer1">
    <g
       transform="matrix(1.018827,0,0,-1.018827,-72.843176,54.464176)"
       id="g3019"
       style="display:inline">
      <path
         style="fill:#ffffff"
         d="m 109.495,-101.774 0,104.307 -34.667,0 0,-104.307 34.667,0 z M 92.168,16.775 c 12.081,0 19.612,8.01 19.612,18.021 -0.224,10.233 -7.531,18.021 -19.385,18.021 -11.864,0 -19.615,-7.788 -19.615,-18.021 0,-10.011 7.521,-18.021 19.159,-18.021 l 0.229,0 0,0 z"
         id="path28_1_" />
      <path
         style="fill:#ffffff"
         d="m 128.681,-101.774 34.673,0 0,58.249 c 0,3.119 0.226,6.235 1.143,8.462 2.5,6.232 8.209,12.681 17.784,12.681 12.547,0 17.562,-9.568 17.562,-23.588 l 0,-55.804 34.666,0 0,59.81 c 0,32.039 -17.1,46.946 -39.913,46.946 -18.701,0 -26.915,-10.45 -31.476,-17.571 l 0.234,0 0,15.122 -34.673,0 c 0.46,-9.786 0,-104.307 0,-104.307 l 0,0 z"
         id="path30_1_" />
    </g>
  </g>
</svg>
