<?xml version="1.0" encoding="UTF-8" standalone="no"?>
<!-- Created with Inkscape (http://www.inkscape.org/) -->

<svg
   xmlns:dc="http://purl.org/dc/elements/1.1/"
   xmlns:cc="http://creativecommons.org/ns#"
   xmlns:rdf="http://www.w3.org/1999/02/22-rdf-syntax-ns#"
   xmlns:svg="http://www.w3.org/2000/svg"
   xmlns="http://www.w3.org/2000/svg"
   xmlns:sodipodi="http://sodipodi.sourceforge.net/DTD/sodipodi-0.dtd"
   xmlns:inkscape="http://www.inkscape.org/namespaces/inkscape"
   width="51.851631mm"
   height="51.851631mm"
   viewBox="0 0 183.72625 183.72625"
   id="svg3382"
   version="1.1"
   inkscape:version="0.91 r13725"
   sodipodi:docname="bblogo.svg">
  <defs
     id="defs3384" />
  <sodipodi:namedview
     id="base"
     pagecolor="#ffffff"
     bordercolor="#666666"
     borderopacity="1.0"
     inkscape:pageopacity="0.0"
     inkscape:pageshadow="2"
     inkscape:zoom="2.8"
     inkscape:cx="222.3534"
     inkscape:cy="88.147234"
     inkscape:document-units="px"
     inkscape:current-layer="layer1"
     showgrid="false"
     fit-margin-top="0"
     fit-margin-left="0"
     fit-margin-right="0"
     fit-margin-bottom="0"
     showborder="true"
     borderlayer="false"
     inkscape:showpageshadow="true"
     inkscape:window-width="1680"
     inkscape:window-height="997"
     inkscape:window-x="1272"
     inkscape:window-y="-8"
     inkscape:window-maximized="1" />
  <metadata
     id="metadata3387">
    <rdf:RDF>
      <cc:Work
         rdf:about="">
        <dc:format>image/svg+xml</dc:format>
        <dc:type
           rdf:resource="http://purl.org/dc/dcmitype/StillImage" />
        <dc:title></dc:title>
      </cc:Work>
    </rdf:RDF>
  </metadata>
  <g
     inkscape:label="Layer 1"
     inkscape:groupmode="layer"
     id="layer1"
     transform="translate(0,-868.636)">
    <g
       transform="matrix(1.25,0,0,-1.25,91.86125,1001.2835)"
       id="g3362">
      <path
         inkscape:connector-curvature="0"
         id="path3364"
         style="fill:#73cb6c;fill-opacity:1;fill-rule:evenodd;stroke:none"
         d="m 0,0 -0.098,0 c -7.573,0.344 -14.078,3.234 -19.512,8.671 -0.673,0.67 -1.304,1.354 -1.899,2.058 -2.902,3.428 -4.877,7.247 -5.929,11.454 l -23.533,0 C -46.136,-1.542 -25.152,-19.395 0,-19.395 L 0,0 Z m 0,84.65 c -26.444,0 -48.281,-19.735 -51.588,-45.281 l 23.266,0 0,25.761 0,6.813 21.964,0 6.358,0 0,12.707 z M 0,-40.863 c -40.586,0 -73.489,32.902 -73.489,73.49 0,40.589 32.903,73.491 73.489,73.491 L 0,91.325 c -30.138,0 -54.963,-22.714 -58.309,-51.956 -0.253,-2.213 -0.387,-4.462 -0.387,-6.742 l 0,-0.054 6.674,0 23.7,0 6.81,0 0,3.829 0,2.967 0,7.764 0,2.566 0,12.304 0,3.143 15.15,0 0,-13.716 c 2.019,0.742 4.141,1.182 6.362,1.315 L 0,6.837 c -5.721,0.322 -10.653,2.556 -14.785,6.702 -4.3,4.298 -6.533,9.442 -6.715,15.441 l -0.012,0 -2.14,0 -4.67,0 -0.006,0 -23.563,0 -6.689,0 c 0.14,-2.304 0.411,-4.573 0.81,-6.797 4.928,-27.434 28.918,-48.254 57.77,-48.254 l 0,-14.792 z m 0,112.806 0.455,0 0,-6.813 0,-5.558 c 0.331,0.009 0.664,0.015 1.001,0.015 8.196,0 15.237,-2.923 21.081,-8.767 3.416,-3.415 5.833,-7.232 7.251,-11.451 l 21.802,0 C 48.283,64.915 26.447,84.65 0,84.65 L 0,71.943 Z m 0,-91.338 c 25.155,0 46.139,17.853 50.974,41.578 l -20.574,0 C 29.126,17.114 26.507,12.612 22.537,8.671 17.062,3.234 10.54,0.344 3,0 L 0,0 0,-19.395 Z m 0,125.513 c 40.589,0 73.492,-32.902 73.492,-73.491 0,-40.588 -32.903,-73.49 -73.492,-73.49 l 0,14.792 c 28.855,0 52.847,20.82 57.771,48.254 0.401,2.224 0.67,4.493 0.812,6.797 l -6.689,0 -20.598,0 -0.11,0 -3.812,0 -2.906,0 C 24.283,22.981 22.036,17.837 17.73,13.539 13.231,9.041 7.814,6.797 1.467,6.797 0.973,6.797 0.485,6.811 0,6.837 l 0,45.908 c 0.485,0.029 0.973,0.044 1.467,0.044 6.347,0 11.764,-2.245 16.263,-6.75 2.035,-2.034 3.609,-4.258 4.722,-6.67 0.983,-2.12 1.606,-4.385 1.876,-6.796 l 6.858,0 20.836,0 6.677,0 0,0.054 c 0,2.28 -0.134,4.529 -0.389,6.742 C 54.966,68.611 30.138,91.325 0,91.325 l 0,14.793 z" />
    </g>
  </g>
</svg>
